<svg viewBox="0 0 33 30" fill="none" xmlns="http://www.w3.org/2000/svg">
<path d="M8.16372 22.0311H7.65808L7.55891 22.5269L6.48846 27.879L6.3409 28.6167H7.09326H17.7978C22.5279 28.6167 27.0946 24.8 28.0367 20.0929C28.5121 17.7174 27.982 15.521 26.6948 13.9122C25.4066 12.302 23.3968 11.3269 21.0092 11.3269H18.3331C17.7698 11.3269 17.3434 11.1018 17.0808 10.7734C16.8171 10.4438 16.6821 9.96392 16.797 9.38837C17.0354 8.19384 18.231 7.20838 19.4035 7.20838H30.1081H30.6137L30.7129 6.71256L31.7833 1.36047L31.9309 0.622718H31.1785H20.474C15.7439 0.622718 11.1772 4.43946 10.2351 9.14659C9.75964 11.5221 10.2898 13.7184 11.577 15.3273C12.8652 16.9374 14.875 17.9126 17.2626 17.9126H19.9387C20.502 17.9126 20.9284 18.1377 21.191 18.466C21.4547 18.7957 21.5897 19.2755 21.4748 19.8511C21.2364 21.0456 20.0408 22.0311 18.8683 22.0311H8.16372Z" fill="white" stroke="white" stroke-width="1.23357"/>
<ellipse cx="4.02075" cy="3.91099" rx="3.91113" ry="3.91099" fill="white"/>
</svg>
